<svg viewBox="0 0 80 80" class="sp-icon sp-icon_spinner sp-icon__md is-spinner sp-loading__icon" style="stroke: rgb(198, 198, 198); height: 40px; width: 40px; stroke-width: 2px;"><path stroke-dasharray="160" stroke-linecap="round" d="M40 40l8.201-8.201c4.53-4.53 11.873-4.53 16.402 0A11.598 11.598 0 0 1 68 40c0 6.405-5.193 11.598-11.598 11.598a11.598 11.598 0 0 1-8.201-3.397L40 40l-8.201-8.201c-4.53-4.53-11.873-4.53-16.402 0A11.598 11.598 0 0 0 12 40c0 6.405 5.193 11.598 11.598 11.598 3.076 0 6.026-1.222 8.201-3.397L40 40z" stroke-width="7" fill="none" fill-rule="evenodd"></path></svg>